<svg id="Color" enable-background="new 0 0 24 24" height="512" viewBox="0 0 24 24" width="512" xmlns="http://www.w3.org/2000/svg"><path d="m24 1.75c0-.965-.785-1.75-1.75-1.75h-20.5c-.965 0-1.75.785-1.75 1.75v20.5c0 .965.785 1.75 1.75 1.75h20.5c.965 0 1.75-.785 1.75-1.75z" fill="#cfd8dc"/><path d="m21 6.5v10c0 .83-.67 1.5-1.5 1.5h-15c-.83 0-1.5-.67-1.5-1.5v-10c0-.83.67-1.5 1.5-1.5h15c.83 0 1.5.67 1.5 1.5z" fill="#90caf9"/><path d="m21 12.27v4.23c0 .83-.67 1.5-1.5 1.5h-11.7l8.52-8.53c.37-.36.96-.39 1.36-.05z" fill="#689f38"/><path d="m17.5 18h-13c-.83 0-1.5-.67-1.5-1.5v-1.22l4.36-3.88c.36-.32.89-.34 1.27-.05z" fill="#8bc34a"/></svg>